<svg xmlns="http://www.w3.org/2000/svg" viewBox="0 0 512 512" role="img" aria-label="3D-Druck-Assistent">
  <defs>
    <linearGradient id="bg" x1="0" y1="0" x2="1" y2="1"><stop stop-color="#0b4238"/><stop offset="1" stop-color="#062b26"/></linearGradient>
    <linearGradient id="glass" x1="0" y1="0" x2="0.8" y2="1"><stop stop-color="#ffffff" stop-opacity=".72"/><stop offset=".42" stop-color="#bff5dc" stop-opacity=".34"/><stop offset="1" stop-color="#4eaf8f" stop-opacity=".24"/></linearGradient>
    <linearGradient id="glassDark" x1="0" y1="0" x2="1" y2="1"><stop stop-color="#d9fff0" stop-opacity=".72"/><stop offset="1" stop-color="#3aa883" stop-opacity=".3"/></linearGradient>
    <filter id="shadow" x="-30%" y="-30%" width="160%" height="170%"><feDropShadow dx="0" dy="20" stdDeviation="16" flood-color="#001a16" flood-opacity=".62"/></filter>
    <filter id="glow" x="-40%" y="-40%" width="180%" height="180%"><feGaussianBlur stdDeviation="10"/></filter>
  </defs>
  <rect width="512" height="512" rx="116" fill="url(#bg)"/>
  <ellipse cx="256" cy="420" rx="150" ry="23" fill="#001e1a" opacity=".55" filter="url(#glow)"/>
  <g filter="url(#shadow)">
    <rect x="112" y="96" width="288" height="312" rx="38" fill="url(#glass)" stroke="#e1ffef" stroke-opacity=".7" stroke-width="6"/>
    <path d="M148 128h216a15 15 0 0 1 15 15v44H133v-44a15 15 0 0 1 15-15Z" fill="#0e5d4e" fill-opacity=".76" stroke="#dfffee" stroke-opacity=".44" stroke-width="4"/>
    <circle cx="160" cy="157" r="9" fill="#8ff0c6"/><circle cx="186" cy="157" r="9" fill="#ffe68c"/>
    <rect x="153" y="206" width="206" height="150" rx="19" fill="#052f29" fill-opacity=".56" stroke="#d7ffec" stroke-opacity=".48" stroke-width="5"/>
    <path d="M214 187v61h84v-61" fill="url(#glassDark)" stroke="#ecfff5" stroke-opacity=".78" stroke-width="7" stroke-linejoin="round"/>
    <path d="M199 239h114l-15 35h-84l-15-35Z" fill="#d9fff0" fill-opacity=".88"/>
    <path d="M256 274v27" stroke="#e5fff2" stroke-width="12" stroke-linecap="round"/>
    <path d="M238 299h36l-9 18h-18l-9-18Z" fill="#9ff0cb"/>
    <path d="M195 337h122l-17 18h-88l-17-18Z" fill="#4fd2a2"/>
    <path d="M151 377h210" stroke="#e6fff3" stroke-opacity=".65" stroke-width="12" stroke-linecap="round"/>
    <path d="M136 111c23-15 68-24 112-24" stroke="#fff" stroke-opacity=".5" stroke-width="12" stroke-linecap="round"/>
  </g>
</svg>

